<?xml version="1.0" encoding="utf-8"?>
<!-- Generator: Adobe Illustrator 22.0.0, SVG Export Plug-In . SVG Version: 6.00 Build 0)  -->
<svg version="1.1" id="Capa_1" xmlns="http://www.w3.org/2000/svg" xmlns:xlink="http://www.w3.org/1999/xlink" x="0px" y="0px"
	 viewBox="0 0 512 512" style="enable-background:new 0 0 512 512;" xml:space="preserve">
<style type="text/css">
	.st0{fill:#4F246C;}
	.st1{fill:#957CA7;}
	.st2{fill:#725089;}
</style>
<circle class="st0" cx="256" cy="256" r="256"/>
<g>
	<path class="st1" d="M194.2,467.9c-0.9,0-1.9-0.2-2.9-0.5c-18-6.1-36-15.1-54.9-27.4c-4.1-2.7-5.2-8.1-2.6-12.2s8.1-5.2,12.2-2.6
		c17.7,11.5,34.4,19.9,51,25.5c4.6,1.6,7.1,6.6,5.5,11.2C201.3,465.5,197.9,467.9,194.2,467.9z"/>
	<path class="st1" d="M97.1,406.1c-2.6,0-5.1-1.1-6.9-3.3c-2-2.5-4.2-5.1-6.4-7.7c-7.5-8.9-16-19-21.1-29.1
		c-2.2-4.4-0.4-9.7,3.9-11.9c4.4-2.2,9.7-0.4,11.9,3.9c4.2,8.3,12,17.5,18.8,25.7c2.3,2.8,4.6,5.5,6.7,8.1c3.1,3.8,2.4,9.4-1.4,12.4
		C101,405.4,99,406.1,97.1,406.1z"/>
</g>
<g>
	<path class="st2" d="M71.5,79.4c-0.1,0-0.4,0-0.8,0C65.3,85.1,60.2,91,55.4,97.1c9.5,0,15.9,0,16.1,0
		c116.8,0,211.9,112.9,211.9,251.6c0,61.8-15,116.5-43.4,158.2l-2.9,4.3c6.3,0.5,12.6,0.8,18.9,0.8c0.5,0,1,0,1.6,0
		c28.4-44,43.5-100.2,43.5-163.3C301,200.2,198.1,79.4,71.5,79.4z"/>
	<path class="st2" d="M201,6c-9.3,2-18.3,4.6-27.2,7.6l8.3,3.5c118.1,47.5,197.5,195,197.5,367c0,27.8-4.3,55-8.5,81.3l-4.8,21.8
		c7-3.4,13.9-7.1,20.6-11l1.5-6.8l0.2-1.2c4.3-27,8.8-54.9,8.8-84.1C397.2,210.8,318.9,61,201,6z"/>
	<path class="st2" d="M498.5,336.5c-39.5-25.2-66-100-66-186.4c0-25,2.5-49.2,7.2-72.2c-5-5.1-10.2-10.1-15.6-14.8l-0.7,5.8
		c-5.7,25.7-8.6,53-8.6,81.2c0,94.1,29.4,173.3,74.8,201.7c0.3,0.2,0.7,0.4,1,0.5l2.1,1c2.2-5.4,4.3-11,6.1-16.6L498.5,336.5z"/>
	<path class="st2" d="M504.4,194.2c-1.5-6-3.2-11.8-5.1-17.6c-201.4-1.1-365,52.7-486.3,160c2,6,4.2,11.9,6.6,17.7l3.9-3.5
		c118.9-105.8,280.2-158.5,479.6-156.7H504.4z"/>
</g>
</svg>
