<?xml version="1.0" encoding="utf-8"?>
<!-- Generator: Adobe Illustrator 22.0.0, SVG Export Plug-In . SVG Version: 6.00 Build 0)  -->
<svg version="1.1" id="Capa_1" xmlns="http://www.w3.org/2000/svg" xmlns:xlink="http://www.w3.org/1999/xlink" x="0px" y="0px"
	 viewBox="0 0 512 512" style="enable-background:new 0 0 512 512;" xml:space="preserve">
<style type="text/css">
	.st0{fill:#4F246C;}
	.st1{fill:#725089;}
	.st2{fill:#DAE7EF;}
	.st3{fill:#C1D5E4;}
	.st4{fill:#F6E266;}
	.st5{fill:#86F1A7;}
	.st6{fill:#DD5790;}
	.st7{fill:#61A2F9;}
	.st8{fill:#957CA7;}
</style>
<g>
	<g>
		<path class="st0" d="M504.6,297.4l-55.5-155.3c-13.3-37.2-48.6-62.1-88.1-62.1H151c-39.5,0-74.8,24.8-88.1,62.1L7.4,297.4
			c-13.9,39-8,82.3,15.9,116.1c17.3,24.5,53.6,24.6,71.1,0.2l55.1-76.8c6.8-9.5,17.8-15.2,29.6-15.2h153.9
			c11.7,0,22.7,5.6,29.6,15.2l55.1,76.8c17.5,24.4,53.8,24.2,71.1-0.2C512.6,379.7,518.5,336.4,504.6,297.4z"/>
	</g>
	<g>
		<path class="st1" d="M504.6,297.4l-55.5-155.3c-13.3-37.2-48.6-62.1-88.1-62.1H275c39.5,0,74.8,24.8,88.1,62.1l55.5,155.3
			c12.5,34.9,9,73.2-9,105.1l8,11.2c17.5,24.4,53.8,24.2,71.1-0.2C512.6,379.7,518.5,336.4,504.6,297.4z"/>
	</g>
	<g>
		<path class="st2" d="M177.4,144.8h-19.8c-1.1,0-2.1-0.9-2.1-2.1v-19.8c0-3.4-2.8-6.2-6.2-6.2H128c-3.4,0-6.2,2.8-6.2,6.2v19.8
			c0,1.1-0.9,2.1-2.1,2.1H99.9c-3.4,0-6.2,2.8-6.2,6.2v21.3c0,3.4,2.8,6.2,6.2,6.2h19.8c1.1,0,2.1,0.9,2.1,2.1v19.8
			c0,3.4,2.8,6.2,6.2,6.2h21.3c3.4,0,6.2-2.8,6.2-6.2v-19.8c0-1.1,0.9-2.1,2.1-2.1h19.8c3.4,0,6.2-2.8,6.2-6.2V151
			C183.7,147.6,180.9,144.8,177.4,144.8L177.4,144.8z"/>
	</g>
	<g>
		<g>
			<path class="st3" d="M177.4,144.8h-7.3v14c0,3.4-2.8,6.2-6.2,6.2h-14.6c-4,0-7.3,3.3-7.3,7.3v14.6c0,3.4-2.8,6.2-6.2,6.2h-14v7.3
				c0,3.4,2.8,6.2,6.2,6.2h21.3c3.4,0,6.2-2.8,6.2-6.2v-19.8c0-1.1,0.9-2.1,2.1-2.1h19.8c3.4,0,6.2-2.8,6.2-6.2V151
				C183.7,147.6,180.9,144.8,177.4,144.8L177.4,144.8z"/>
		</g>
	</g>
	<g>
		<circle class="st2" cx="313.9" cy="253.1" r="37.8"/>
	</g>
	<g>
		<circle class="st2" cx="198.2" cy="253.1" r="37.8"/>
	</g>
	<g>
		<path class="st3" d="M323.3,216.4c0.8,3,1.2,6.1,1.2,9.3c0,20.9-16.9,37.8-37.8,37.8c-3.2,0-6.4-0.4-9.3-1.2
			c4.2,16.4,19,28.5,36.7,28.5c20.9,0,37.8-16.9,37.8-37.8C351.7,235.4,339.6,220.6,323.3,216.4L323.3,216.4z"/>
	</g>
	<g>
		<path class="st3" d="M207.5,216.4c0.8,3,1.2,6.1,1.2,9.3c0,20.9-16.9,37.8-37.8,37.8c-3.2,0-6.4-0.4-9.3-1.2
			c4.2,16.4,19,28.5,36.7,28.5c20.9,0,37.8-16.9,37.8-37.8C236,235.4,223.9,220.6,207.5,216.4L207.5,216.4z"/>
	</g>
	<circle class="st2" cx="256.2" cy="152.5" r="22.5"/>
	<path class="st3" d="M265,131.8c1.2,2.7,1.8,5.7,1.8,8.8c0,12.4-10.1,22.5-22.5,22.5c-3.1,0-6.1-0.6-8.8-1.8
		c3.4,8,11.4,13.7,20.7,13.7c12.4,0,22.5-10.1,22.5-22.5C278.7,143.2,273,135.2,265,131.8L265,131.8z"/>
	<g>
		<path class="st4" d="M372.9,121.1c-7,0-12.6,5.7-12.6,12.6c0,7,5.7,12.6,12.6,12.6c7,0,12.6-5.7,12.6-12.6
			S379.9,121.1,372.9,121.1z"/>
		<path class="st5" d="M372.9,202.5c7,0,12.6-5.7,12.6-12.6s-5.7-12.6-12.6-12.6s-12.6,5.7-12.6,12.6S365.9,202.5,372.9,202.5z"/>
		<circle class="st6" cx="401" cy="161.8" r="12.6"/>
		<path class="st7" d="M357.5,161.8c0-7-5.7-12.6-12.6-12.6c-7,0-12.6,5.7-12.6,12.6s5.7,12.6,12.6,12.6
			C351.8,174.4,357.5,168.8,357.5,161.8z"/>
	</g>
	<g>
		<g>
			<path class="st8" d="M313.9,298.4c-25,0-45.3-20.3-45.3-45.3s20.3-45.3,45.3-45.3s45.3,20.3,45.3,45.3S338.9,298.4,313.9,298.4z
				 M313.9,222.8c-16.7,0-30.3,13.6-30.3,30.3s13.6,30.3,30.3,30.3s30.3-13.6,30.3-30.3S330.6,222.8,313.9,222.8z"/>
		</g>
	</g>
	<g>
		<g>
			<path class="st8" d="M198.2,298.4c-25,0-45.3-20.3-45.3-45.3s20.3-45.3,45.3-45.3s45.3,20.3,45.3,45.3S223.2,298.4,198.2,298.4z
				 M198.2,222.8c-16.7,0-30.3,13.6-30.3,30.3s13.6,30.3,30.3,30.3s30.3-13.6,30.3-30.3S214.9,222.8,198.2,222.8z"/>
		</g>
	</g>
</g>
</svg>
