<?xml version="1.0" encoding="utf-8"?>
<!-- Generator: Adobe Illustrator 22.0.0, SVG Export Plug-In . SVG Version: 6.00 Build 0)  -->
<svg version="1.1" id="Capa_1" xmlns="http://www.w3.org/2000/svg" xmlns:xlink="http://www.w3.org/1999/xlink" x="0px" y="0px"
	 viewBox="0 0 512 512" style="enable-background:new 0 0 512 512;" xml:space="preserve">
<style type="text/css">
	.st0{fill:#B5ADB6;}
	.st1{fill:#4F246C;}
	.st2{fill:#3B1B51;}
	.st3{fill:#957CA7;}
	.st4{fill:#EFEDEF;}
</style>
<g>
	<g>
		<path class="st0" d="M494,383.7c-4.3,0-7.7-3.5-7.7-7.7v-90.6c0-4.3,3.5-7.7,7.7-7.7c4.3,0,7.7,3.5,7.7,7.7V376
			C501.7,380.3,498.3,383.7,494,383.7z"/>
	</g>
	<g>
		<path class="st0" d="M18.1,401.9c-4.3,0-7.7-3.5-7.7-7.7V280.3c0-4.3,3.5-7.7,7.7-7.7s7.7,3.5,7.7,7.7v113.8
			C25.8,398.4,22.4,401.9,18.1,401.9z"/>
	</g>
	<path class="st1" d="M511.2,306.5l0.2-16.1c2.2-140.6-111.1-255.6-251.7-255.6h0c-140.6,0-257.4,115-259.6,255.6L0,304.7
		c0,2.3,1.8,4.2,4.2,4.2h26.6c2.3,0,4.1-1.8,4.2-4.1l0.2-16c0.9-58.2,23.9-114.1,65.2-155.1c41.6-41.3,96.9-64.1,155.4-64.1
		c1.2,0,2.3,0,3.5,0c59.4,0.9,114.9,25.1,156.1,68.1c40.4,42.3,62,99.1,61.1,157.6l-0.2,11c0,1.4,1.1,2.6,2.5,2.6h29.9
		C510.1,309,511.2,307.9,511.2,306.5z"/>
	<g>
		<path class="st0" d="M24.5,371.1h48.7v86.3H24.5L24.5,371.1z"/>
		<path class="st1" d="M18.1,472c-9.8,0-17.7-7.9-17.7-17.7v-80.2c0-9.8,7.9-17.7,17.7-17.7s17.7,7.9,17.7,17.7v80.2
			C35.8,464.1,27.9,472,18.1,472L18.1,472z"/>
		<path class="st0" d="M486.6,457.4h-51.8v-86.3h51.8V457.4z"/>
		<path class="st1" d="M494,472c9.8,0,17.7-7.9,17.7-17.7v-80.2c0-9.8-7.9-17.7-17.7-17.7c-9.8,0-17.7,7.9-17.7,17.7v80.2
			C476.4,464.1,484.3,472,494,472L494,472z"/>
		<g id="XMLID_8_">
			<g>
				<path class="st1" d="M415.2,317l-11,25.9v154.5l11,14.2c17.7,0,32-14.3,32-32V349C447.2,331.3,432.9,317,415.2,317z"/>
				<path class="st1" d="M97,317c-17.7,0-32,14.3-32,32v130.5c0,17.7,14.3,32,32,32l14.8-19.5V351.4L97,317z"/>
				<g>
					<path class="st0" d="M415.2,317v194.6h-26.5c-7,0-12.7-5.7-12.7-12.7V329.7c0-7,5.7-12.7,12.7-12.7H415.2z"/>
					<path class="st0" d="M136.2,329.7v169.1c0,7-5.7,12.7-12.7,12.7H97V317h26.5C130.5,317,136.2,322.7,136.2,329.7L136.2,329.7z"
						/>
				</g>
			</g>
		</g>
		<path class="st2" d="M285.1,36c0,0.9-0.1,1.7-0.1,2.6v33c49.6,6.5,95.2,29.5,130.3,66.2c18.5,19.3,33,41.7,43.3,65.9h15.3
			c7.8,0,15.3-1.6,22.1-4.4C463.4,110.9,382.5,45.7,285.1,36z"/>
		<path class="st3" d="M473.9,0.5H343.7c-21.1,0-38.1,17.1-38.1,38.1V145c0,21.1,17.1,38.1,38.1,38.1h0.2v38.4
			c0,4.7,5.8,6.9,8.9,3.4l36.7-41.8h84.4c21.1,0,38.1-17.1,38.1-38.1V38.6C512,17.5,494.9,0.5,473.9,0.5z"/>
		<g>
			
				<ellipse transform="matrix(0.8418 -0.5398 0.5398 0.8418 -11.2572 229.2327)" class="st4" cx="385.4" cy="133.8" rx="19.3" ry="14.9"/>
			
				<ellipse transform="matrix(0.8418 -0.5398 0.5398 0.8418 4.5423 264.1811)" class="st4" cx="452.9" cy="124.3" rx="19.3" ry="14.9"/>
			<path class="st4" d="M465.6,32c-3.4-2.6-7.8-3.5-11.9-2.3l-55.5,15.2c-5.9,1.6-10.1,7.1-10.1,13.2v72c0,4.3,3.5,7.7,7.7,7.7
				s7.7-3.5,7.7-7.7V95.9l52.1-14.2v38.8c0,4.3,3.5,7.7,7.7,7.7c4.3,0,7.7-3.5,7.7-7.7V42.9C471,38.5,469,34.6,465.6,32L465.6,32z
				 M403.5,80V59.3l52.1-14.2v20.6L403.5,80z"/>
		</g>
	</g>
</g>
</svg>
